<svg width="96" height="31" viewBox="0 0 96 31" fill="none" xmlns="http://www.w3.org/2000/svg">
<path d="M23.362 11.673C22.4053 10.7163 21.2847 9.96467 20 9.418C18.7153 8.844 17.4717 8.557 16.269 8.557C15.3397 8.557 14.4787 8.73467 13.686 9.09C12.9207 9.44533 12.251 9.93733 11.677 10.566C11.103 11.1947 10.652 11.9463 10.324 12.821C10.0233 13.6683 9.873 14.5977 9.873 15.609C9.873 16.6477 10.037 17.6043 10.365 18.479C10.693 19.3263 11.144 20.078 11.718 20.734C12.292 21.3627 12.9753 21.8547 13.768 22.21C14.5607 22.5653 15.4217 22.743 16.351 22.743C17.1983 22.743 18.237 22.5107 19.467 22.046C20.7243 21.554 21.8723 20.939 22.911 20.201L28.282 26.884C27.216 27.5947 25.9587 28.237 24.51 28.811C23.0887 29.385 21.599 29.836 20.041 30.164C18.5103 30.492 17.0617 30.656 15.695 30.656C13.4537 30.656 11.3763 30.287 9.463 29.549C7.577 28.7837 5.92333 27.7313 4.502 26.392C3.108 25.0527 2.02833 23.4673 1.263 21.636C0.497667 19.7773 0.115 17.7683 0.115 15.609C0.115 13.4497 0.511333 11.468 1.304 9.664C2.09667 7.83267 3.21733 6.24733 4.666 4.908C6.142 3.54133 7.864 2.489 9.832 1.751C11.8 1.013 13.9593 0.643999 16.31 0.643999C17.8133 0.643999 19.3167 0.835332 20.82 1.218C22.3507 1.57333 23.7993 2.09267 25.166 2.776C26.5327 3.432 27.7217 4.22467 28.733 5.154L23.362 11.673ZM20.123 14.871H28.282V26.884H20.123V14.871ZM29.1955 1.259H38.6665L44.4475 12.329L50.0235 1.259H59.4945L44.9805 29.18H43.8325L29.1955 1.259ZM39.6915 17.003H49.2035V30H39.6915V17.003ZM60.9603 1.259H71.0463L78.1803 16.265L85.2733 1.259H95.3593V30H87.0363V14.256L81.2553 27.212H75.0643L69.2833 14.256V30H60.9603V1.259Z" fill="#F97316"/>
</svg>
